<?xml version="1.0" standalone="no"?>
<!DOCTYPE svg PUBLIC "-//W3C//DTD SVG 20010904//EN"
 "http://www.w3.org/TR/2001/REC-SVG-20010904/DTD/svg10.dtd">
<svg version="1.0" xmlns="http://www.w3.org/2000/svg"
 width="1024.000000pt" height="1024.000000pt" viewBox="0 0 1024.000000 1024.000000"
 preserveAspectRatio="xMidYMid meet">

<g transform="translate(0.000000,1024.000000) scale(0.100000,-0.100000)"
fill="#000000" stroke="none">
<path d="M7407 7809 c-616 -54 -1134 -461 -1311 -1029 -48 -156 -66 -267 -73
-447 l-6 -152 29 -24 c16 -14 58 -68 94 -121 62 -91 65 -94 72 -68 4 15 21
178 38 362 33 359 55 497 98 618 93 261 288 449 517 497 100 21 147 19 317
-15 264 -53 568 -59 808 -15 167 30 274 18 409 -47 153 -73 274 -221 346 -421
71 -198 95 -414 95 -846 l0 -275 65 89 c36 50 80 108 98 130 l32 40 -1 220 c0
246 -14 335 -79 533 -188 563 -651 916 -1275 972 -126 11 -144 11 -273 -1z"/>
<path d="M2865 7771 c-455 -53 -842 -281 -1165 -687 -290 -364 -499 -879 -550
-1356 -15 -142 -12 -411 6 -636 19 -226 14 -506 -11 -692 -42 -307 -138 -605
-259 -806 l-48 -79 17 -50 c109 -320 310 -679 487 -871 l40 -43 38 19 c67 34
196 138 269 216 124 132 222 293 279 456 62 173 78 319 88 770 l7 317 -58 88
c-97 149 -164 308 -204 479 -12 49 -14 52 -50 58 -54 8 -130 63 -168 119 -89
134 -128 393 -81 549 12 41 102 148 124 148 5 0 39 -86 75 -192 l66 -192 8
313 7 313 37 31 c211 180 381 387 502 611 48 90 85 121 224 190 113 56 243 99
404 133 111 23 147 26 311 26 102 -1 216 -6 254 -12 79 -11 91 -21 213 -166
193 -229 344 -472 497 -803 l65 -141 2 -267 c0 -146 4 -262 8 -258 4 5 30 80
57 167 l49 158 32 -35 c45 -49 58 -102 57 -236 -1 -132 -27 -232 -85 -321 -32
-50 -99 -109 -125 -109 -7 0 -17 -23 -24 -57 -56 -283 -169 -502 -378 -733
l-72 -78 -10 -134 c-5 -73 -10 -194 -10 -268 0 -168 -15 -379 -35 -491 -43
-248 -175 -516 -306 -619 -62 -49 -56 -51 126 -57 118 -4 154 -2 226 15 240
58 433 208 565 439 75 131 134 332 134 456 0 20 2 37 5 37 18 0 465 -186 630
-262 154 -71 231 -123 314 -214 70 -77 146 -217 157 -290 6 -44 11 -49 90
-108 226 -166 565 -355 827 -460 768 -308 1532 -321 2101 -35 236 119 486 327
666 554 144 181 315 480 418 731 l30 71 -87 51 c-111 66 -282 146 -451 212
-74 29 -140 58 -146 64 -6 6 -18 31 -27 56 -23 60 -104 167 -175 228 -70 61
-187 137 -270 176 -51 25 -61 33 -57 50 6 26 45 294 45 308 0 6 -12 -11 -26
-38 -88 -165 -315 -411 -474 -513 -99 -64 -204 -110 -318 -138 -51 -13 -110
-17 -242 -17 -163 1 -183 3 -292 31 -222 59 -380 152 -553 327 -108 109 -201
232 -264 350 -17 32 -31 53 -31 45 0 -8 9 -97 20 -199 10 -101 18 -185 17
-186 -1 -1 -41 -17 -88 -36 -148 -58 -236 -115 -334 -213 -100 -99 -153 -190
-175 -297 l-11 -57 -132 -77 c-120 -71 -370 -234 -459 -299 -20 -15 -41 -24
-46 -21 -6 3 -41 52 -80 108 -267 393 -397 802 -427 1338 -4 68 0 245 10 435
19 342 16 816 -5 1010 -58 540 -170 862 -376 1085 -124 134 -358 249 -506 250
-29 0 -52 12 -108 53 -123 93 -280 161 -442 192 -99 19 -272 26 -363 16z
m3601 -3271 c259 -394 622 -600 1055 -600 381 0 706 196 973 588 31 45 56 79
56 75 0 -4 -9 -66 -19 -137 -11 -71 -17 -135 -14 -142 2 -7 -2 -61 -11 -121
-9 -59 -23 -166 -31 -238 -12 -99 -24 -149 -50 -212 -69 -170 -219 -392 -414
-613 -157 -177 -331 -385 -411 -490 -40 -52 -76 -95 -80 -95 -13 0 -449 416
-635 606 -254 259 -410 482 -435 621 -12 64 -41 525 -34 542 3 7 -2 74 -11
150 -15 140 -18 204 -8 176 3 -8 34 -58 69 -110z"/>
<path d="M6430 4183 c0 -22 98 -158 157 -216 32 -31 81 -73 108 -93 115 -83
375 -192 495 -208 25 -3 -2 7 -60 23 -214 59 -394 151 -519 265 -45 42 -135
157 -164 211 -9 17 -16 25 -17 18z"/>
<path d="M8430 3999 c-175 -147 -423 -278 -620 -327 -92 -23 -126 -26 -275
-26 -93 -1 -199 2 -235 6 -50 5 -58 5 -35 -3 17 -6 104 -13 195 -16 177 -6
283 6 424 48 140 42 331 144 486 261 47 34 89 66 95 70 5 4 7 9 5 12 -3 2 -21
-9 -40 -25z"/>
<path d="M6791 6449 c-106 -21 -232 -103 -265 -173 -21 -45 -20 -62 4 -86 27
-27 60 -25 101 5 121 87 206 105 411 85 185 -18 194 -17 223 10 46 43 24 119
-38 139 -93 29 -335 40 -436 20z"/>
<path d="M7874 6420 c-84 -12 -114 -38 -114 -98 0 -22 9 -38 32 -57 28 -24 37
-26 87 -21 214 21 314 16 404 -23 25 -11 70 -42 101 -70 62 -56 108 -67 139
-33 27 29 20 66 -22 122 -75 100 -177 155 -331 180 -73 11 -219 11 -296 0z"/>
<path d="M2475 6190 c-136 -25 -270 -112 -331 -217 -23 -38 -24 -45 -12 -70
10 -21 22 -29 46 -31 27 -3 42 5 94 53 34 30 87 68 117 83 54 26 62 27 191 25
74 -1 155 -4 179 -5 37 -3 47 1 64 24 21 28 19 58 -5 91 -28 38 -235 67 -343
47z"/>
<path d="M3400 6175 c-61 -15 -90 -42 -90 -85 0 -36 29 -72 60 -72 14 -1 59 5
100 12 168 28 304 -7 396 -102 58 -60 85 -72 119 -56 57 26 41 90 -44 176
-103 104 -207 143 -381 141 -58 0 -130 -7 -160 -14z"/>
<path d="M6877 6079 c-76 -40 -104 -147 -53 -205 l23 -28 129 3 c144 2 166 10
189 65 27 63 -19 144 -97 173 -53 19 -147 15 -191 -8z"/>
<path d="M7990 6059 c-68 -27 -110 -103 -90 -164 20 -61 44 -72 186 -80 122
-7 126 -6 150 16 65 61 29 171 -73 223 -36 18 -133 21 -173 5z"/>
<path d="M2515 5885 c-128 -45 -133 -215 -8 -276 102 -49 217 18 217 129 0
111 -104 184 -209 147z"/>
<path d="M3546 5890 c-101 -31 -136 -164 -64 -246 99 -112 282 -18 249 128
-21 94 -100 144 -185 118z"/>
<path d="M7184 5456 c-17 -27 -16 -71 3 -71 6 0 15 -4 20 -9 5 -5 2 -6 -6 -1
-9 5 -12 3 -9 -6 3 -8 12 -13 21 -13 9 1 15 -3 14 -9 -3 -16 100 -83 167 -108
80 -30 179 -31 271 -1 77 25 197 101 229 145 19 26 19 30 5 55 -25 46 -62 41
-157 -22 -90 -61 -132 -76 -208 -76 -68 0 -128 22 -192 70 -54 41 -73 51 -53
27 6 -8 8 -16 5 -20 -3 -3 3 -10 14 -16 11 -6 22 -8 24 -5 3 2 11 -2 17 -10 8
-10 9 -16 1 -21 -6 -4 -10 -3 -9 2 4 22 -2 25 -16 7 -11 -13 -14 -14 -13 -4 2
9 -3 14 -14 12 -14 -2 -18 4 -19 28 -1 16 -2 33 -3 38 -7 39 -67 45 -92 8z
m653 -3 c-9 -2 -14 -9 -11 -15 4 -7 2 -8 -5 -4 -15 10 -4 26 17 25 15 -1 15
-2 -1 -6z m52 -42 l-2 -26 -4 25 c-3 14 -10 32 -16 40 -11 13 -10 13 6 1 9 -7
16 -25 16 -40z m-19 8 c0 -6 -4 -7 -10 -4 -5 3 -10 11 -10 16 0 6 5 7 10 4 6
-3 10 -11 10 -16z m-91 -12 c-2 -1 -13 -9 -24 -17 -19 -14 -19 -14 -6 3 7 9
18 17 24 17 6 0 8 -1 6 -3z m-29 -40 c11 -5 9 -6 -4 -4 -11 1 -21 9 -23 17 -3
10 -2 11 4 4 4 -6 15 -14 23 -17z m97 -9 c-3 -7 -5 -2 -5 12 0 14 2 19 5 13 2
-7 2 -19 0 -25z m-20 0 c-3 -8 -6 -5 -6 6 -1 11 2 17 5 13 3 -3 4 -12 1 -19z
m-432 -6 c-3 -3 -11 0 -18 7 -9 10 -8 11 6 5 10 -3 15 -9 12 -12z m412 -11 c0
-11 -5 -18 -9 -15 -4 3 -5 11 -1 19 7 21 12 19 10 -4z m-507 -31 c8 -5 11 -10
5 -10 -5 0 -21 10 -35 21 -24 20 -5 13 30 -11z m157 24 c-3 -3 -12 -4 -19 -1
-8 3 -5 6 6 6 11 1 17 -2 13 -5z m190 0 c-3 -3 -12 -4 -19 -1 -8 3 -5 6 6 6
11 1 17 -2 13 -5z m-147 -8 c0 -2 -7 -6 -15 -10 -8 -3 -15 -1 -15 4 0 6 7 10
15 10 8 0 15 -2 15 -4z m-145 -46 c4 -6 11 -8 16 -5 5 4 9 1 9 -4 0 -15 -13
-14 -36 4 -10 8 -14 15 -7 15 6 0 15 -5 18 -10z m169 1 c4 -5 -3 -7 -13 -4
-11 3 -28 0 -38 -6 -17 -10 -17 -10 2 -11 11 0 29 -7 39 -15 19 -14 18 -15
-15 -15 -19 0 -44 3 -57 6 -22 6 -22 7 10 30 33 25 63 31 72 15z m130 -33 c-3
-4 -11 -8 -17 -7 -9 0 -9 2 0 5 7 3 9 13 6 22 -4 14 -3 14 5 2 6 -8 8 -18 6
-22z m-89 2 c-3 -6 4 -10 17 -11 13 0 17 -3 10 -6 -18 -7 -44 5 -37 17 3 5 8
10 11 10 3 0 2 -4 -1 -10z"/>
<path d="M7468 5243 c6 -2 18 -2 25 0 6 3 1 5 -13 5 -14 0 -19 -2 -12 -5z"/>
<path d="M6933 5360 c-34 -17 -67 -38 -75 -47 -11 -14 -11 -16 1 -8 9 5 12 4
7 -3 -4 -6 -13 -9 -20 -6 -19 7 -101 -89 -136 -160 -47 -92 -36 -166 24 -166
34 0 53 20 76 82 11 31 37 78 57 105 21 26 29 42 20 34 -11 -9 -17 -10 -17 -2
0 10 14 15 33 12 4 -1 22 10 40 23 18 14 53 34 79 45 55 23 70 56 44 96 -22
34 -58 32 -133 -5z m102 11 c3 -5 0 -13 -6 -17 -8 -4 -9 -3 -5 4 4 7 1 12 -8
12 -9 0 -16 -5 -16 -11 0 -5 -5 -7 -11 -3 -8 4 -7 9 2 15 18 11 36 11 44 0z
m-89 -30 c-4 -5 0 -12 6 -14 8 -3 6 -6 -4 -6 -10 -1 -18 6 -18 14 0 8 5 15 11
15 5 0 8 -4 5 -9z m44 -33 c0 -18 -2 -20 -9 -8 -6 8 -7 18 -5 22 9 14 14 9 14
-14z m61 -11 c-10 -9 -11 -8 -5 6 3 10 9 15 12 12 3 -3 0 -11 -7 -18z m-76
-26 c6 -1 3 -5 -5 -11 -9 -5 -19 -5 -26 0 -6 6 -15 6 -19 2 -5 -4 -5 -2 -2 5
4 6 15 10 25 8 9 -2 22 -4 27 -4z m-137 -26 c-3 -3 -9 2 -12 12 -6 14 -5 15 5
6 7 -7 10 -15 7 -18z m-37 -8 c-6 -8 -8 -17 -4 -20 3 -4 -2 -7 -12 -7 -17 0
-17 1 0 20 20 22 34 28 16 7z m-38 -54 c-7 -3 -13 -9 -13 -14 0 -5 9 -4 19 3
11 7 17 16 15 20 -3 4 0 8 7 8 7 0 9 -8 6 -21 -4 -15 -2 -19 9 -15 8 3 14 1
14 -3 0 -5 -7 -11 -15 -15 -8 -3 -15 -1 -15 4 0 6 -7 10 -16 10 -13 0 -14 -3
-4 -15 6 -8 10 -20 7 -27 -3 -8 -6 -5 -6 6 -1 16 -3 17 -18 5 -16 -13 -17 -12
-4 4 9 12 10 17 2 17 -12 0 -32 -44 -30 -65 0 -5 7 -9 15 -7 8 2 14 -3 14 -9
0 -7 -3 -9 -7 -6 -3 4 -12 2 -18 -3 -9 -8 -14 -6 -19 5 -10 26 47 146 62 129
4 -3 1 -9 -5 -11z m107 -6 c0 -2 -10 -12 -22 -23 l-23 -19 19 23 c18 21 26 27
26 19z m-110 -72 c0 -2 -9 -9 -20 -15 -16 -9 -18 -8 -14 5 5 13 34 22 34 10z
m35 -5 c-3 -5 -2 -10 3 -10 6 0 8 -9 5 -21 -4 -16 -8 -18 -14 -7 -7 11 -11 10
-19 -2 -6 -9 -10 -10 -10 -3 0 7 8 17 18 22 9 6 13 11 9 11 -9 0 1 20 9 20 3
0 2 -4 -1 -10z m-52 -64 c15 1 27 -4 27 -10 0 -6 5 -4 10 4 5 8 10 10 10 4 0
-5 -7 -19 -16 -30 -8 -10 -13 -14 -10 -8 3 7 -1 14 -9 18 -9 3 -15 0 -15 -9 0
-20 -36 -19 -44 1 -3 9 -6 25 -6 37 1 19 2 20 13 7 7 -8 24 -15 40 -14z"/>
<path d="M6703 5016 c5 -16 24 -18 30 -2 4 10 0 14 -14 13 -10 -1 -18 -6 -16
-11z"/>
<path d="M3197 5182 c-90 -48 -149 -49 -233 -3 -68 37 -97 39 -118 9 -24 -33
-19 -63 14 -101 48 -55 119 -82 220 -82 77 0 92 3 152 33 75 37 108 71 108
113 0 28 -40 70 -64 68 -6 -1 -42 -17 -79 -37z"/>
<path d="M6905 5015 c-93 -92 76 -330 307 -435 210 -94 482 -74 672 50 114 75
246 236 246 301 0 26 -38 67 -68 74 -15 3 -63 -2 -107 -10 -224 -45 -748 -29
-940 30 -68 20 -82 19 -110 -10z m255 -109 c193 -27 408 -38 594 -31 98 4 186
9 195 12 9 3 -4 -15 -29 -41 -86 -91 -245 -146 -416 -146 -162 0 -287 43 -401
138 -68 57 -99 99 -66 88 10 -3 65 -12 123 -20z"/>
<path d="M2585 4828 c-20 -30 -19 -63 4 -130 52 -152 184 -267 357 -312 78
-20 222 -21 299 -1 180 47 356 223 380 380 12 79 43 74 -522 80 l-502 5 -16
-22z m738 -125 c53 -3 97 -9 97 -13 0 -16 -101 -110 -141 -131 -85 -44 -269
-37 -379 14 -45 22 -110 79 -130 116 -11 21 -10 21 222 21 128 0 277 -3 331
-7z"/>
</g>
</svg>
